# xmcd CD database file
#
# Track frame offsets:
#	150
#	23662
#	44630
#	64147
#	82012
#	105320
#	128057
#	150027
#	165050
#	184340
#	202812
#	211322
#	244997
#	285950
#	307955
#
# Disc length: 4401 seconds
#
# Revision: 0
# Processed by: cddbd v1.5.2PL0 Copyright (c) Steve Scherf et al.
# Submitted via: CDex 1.70beta2
#
DISCID=b6112f0f
DTITLE=Various artist - Cherry Best Reference No.2
DYEAR=1900
DGENRE=New Age
TTITLE0=Waters Of March
TTITLE1=Caruso
TTITLE2=Landmark
TTITLE3=Mae'y Ysbryd Yn Troi
TTITLE4=Aftermath
TTITLE5=Alone again
TTITLE6=Did I remember
TTITLE7=The water is wide
TTITLE8=Two black guitar
TTITLE9=Thank you
TTITLE10=Morning has broken
TTITLE11=Mozart Quintets in C major:Allegro
TTITLE12=Joseph Haydn C major I:Moderato
TTITLE13=Variations on a theme by Rossini,op. posth
TTITLE14=凝視 Gaze
EXTD=
EXTT0=
EXTT1=
EXTT2=
EXTT3=
EXTT4=
EXTT5=
EXTT6=
EXTT7=
EXTT8=
EXTT9=
EXTT10=
EXTT11=
EXTT12=
EXTT13=
EXTT14=
PLAYORDER=
